<?xml version="1.0" encoding="UTF-8" standalone="no"?>
<svg width="1024" height="1024" viewBox="0 0 1024 1024" xmlns="http://www.w3.org/2000/svg">
  <!-- Background circle -->
  <circle cx="512" cy="512" r="480" fill="#2c2c54" />
  
  <!-- Open book -->
  <path d="M256 320 C256 280, 280 260, 320 260 L704 260 C744 260, 768 280, 768 320 L768 660 C768 700, 744 720, 704 720 L320 720 C280 720, 256 700, 256 660 Z" fill="#f7f1e3" />
  
  <!-- Book pages divider -->
  <path d="M512 260 L512 720" stroke="#d1ccc0" stroke-width="4" />
  
  <!-- D20 dice -->
  <path d="M512 400 L412 500 L512 600 L612 500 Z" fill="#706fd3" />
  <path d="M512 400 L412 500 L512 500 Z" fill="#474787" />
  <path d="M512 400 L612 500 L512 500 Z" fill="#474787" />
  <path d="M512 600 L412 500 L512 500 Z" fill="#40407a" />
  <path d="M512 600 L612 500 L512 500 Z" fill="#40407a" />
  
  <!-- Sparkle effects around d20 -->
  <circle cx="430" cy="430" r="15" fill="#f7d794" />
  <circle cx="594" cy="430" r="15" fill="#f7d794" />
  <circle cx="430" cy="570" r="15" fill="#f7d794" />
  <circle cx="594" cy="570" r="15" fill="#f7d794" />
  
  <!-- Study hat -->
  <path d="M420 320 L604 320 L580 240 L444 240 Z" fill="#34ace0" />
  <rect x="492" y="220" width="40" height="20" fill="#34ace0" />
  <path d="M480 240 L480 200 L544 200 L544 240" fill="none" stroke="#34ace0" stroke-width="10" />
  
  <!-- Quill pen -->
  <path d="M320 640 C350 620, 380 600, 410 580 L430 600 C400 620, 370 640, 340 660 Z" fill="#ffb142" />
  <path d="M410 580 L450 540" stroke="#ffb142" stroke-width="4" />
  
  <!-- Magical runes around edge -->
  <g fill="none" stroke="#f7d794" stroke-width="8">
    <path d="M220 400 L250 400 M230 380 L240 420" />
    <path d="M220 600 L250 600 M230 580 L240 620" />
    <path d="M774 400 L804 400 M784 380 L794 420" />
    <path d="M774 600 L804 600 M784 580 L794 620" />
  </g>
</svg>